<svg width="975" height="415" viewBox="0 0 975 415" fill="none" xmlns="http://www.w3.org/2000/svg">
<g opacity="0.15" clip-path="url(#clip0_0_1)">
<path d="M216.66 397.58V311.72H50.88V258.8L235.56 20.66H276.06V257.72H323.58V311.72H276.06V397.58H216.66ZM111.36 257.72H223.14V111.38L111.36 257.72ZM615.425 170.78C615.425 202.46 609.305 230.72 597.065 255.56C585.185 280.04 568.805 299.3 547.925 313.34C527.405 327.38 503.825 334.4 477.185 334.4C450.905 334.4 427.325 327.38 406.445 313.34C385.565 299.3 369.005 280.04 356.765 255.56C344.885 230.72 338.945 202.46 338.945 170.78C338.945 139.1 344.885 111.02 356.765 86.54C369.005 61.7 385.565 42.26 406.445 28.22C427.325 13.82 450.905 6.62 477.185 6.62C503.825 6.62 527.405 13.82 547.925 28.22C568.805 42.26 585.185 61.7 597.065 86.54C609.305 111.02 615.425 139.1 615.425 170.78ZM554.945 170.78C554.945 149.18 551.705 130.28 545.225 114.08C538.745 97.52 529.565 84.74 517.685 75.74C505.805 66.38 492.305 61.7 477.185 61.7C461.705 61.7 448.025 66.38 436.145 75.74C424.265 84.74 414.905 97.52 408.065 114.08C401.585 130.28 398.345 149.18 398.345 170.78C398.345 192.38 401.585 211.28 408.065 227.48C414.905 243.68 424.265 256.46 436.145 265.82C448.025 274.82 461.705 279.32 477.185 279.32C492.305 279.32 505.625 274.82 517.145 265.82C529.025 256.46 538.205 243.68 544.685 227.48C551.525 211.28 554.945 192.38 554.945 170.78ZM788.364 397.58V311.72H622.584V258.8L807.264 20.66H847.764V257.72H895.284V311.72H847.764V397.58H788.364ZM683.064 257.72H794.844V111.38L683.064 257.72Z" fill="#7B7A7A"/>
</g>
<path d="M439.142 356.004H474.355V404.421L469.953 413.224H430.339C427.698 413.224 425.938 411.463 425.938 408.822V395.618C425.938 389.456 430.339 383.734 436.501 382.853L439.142 382.413V356.004Z" stroke="currentColor" stroke-width="3" stroke-miterlimit="10"/>
<path d="M434.741 382.413H463.351C469.513 382.413 474.355 385.054 474.355 391.216V395.618" stroke="currentColor" stroke-width="3" stroke-miterlimit="10"/>
<path d="M526.733 356.004H491.521V408.822C491.521 411.463 493.282 413.224 495.922 413.224H544.339C546.98 413.224 548.741 411.463 548.741 408.822V395.618C548.741 389.456 544.339 383.734 538.177 382.853L526.733 382.413V356.004Z" stroke="currentColor" stroke-width="3" stroke-miterlimit="10"/>
<path d="M501.644 47.0157C501.644 50.0968 499.004 52.2976 496.363 52.2976C493.282 52.2976 491.081 49.6567 491.081 47.0157C491.081 43.9347 493.722 41.7339 496.363 41.7339C499.444 41.7339 501.644 44.3748 501.644 47.0157Z" fill="currentColor"/>
<path d="M524.532 47.0157C524.532 50.0968 521.891 52.2976 519.25 52.2976C516.169 52.2976 513.968 49.6567 513.968 47.0157C513.968 43.9347 516.609 41.7339 519.25 41.7339C521.891 41.7339 524.532 44.3748 524.532 47.0157Z" fill="currentColor"/>
<path d="M434.741 108.637V55.8185C434.741 26.7683 458.51 3 487.56 3C516.61 3 540.378 26.7683 540.378 55.8185V108.637C561.066 179.062 581.313 249.927 602 320.351C598.479 322.552 587.915 329.154 572.95 327.834C562.386 326.954 555.344 322.552 551.822 320.351C549.181 322.112 541.259 327.834 529.375 327.834C517.05 327.834 508.687 322.112 506.486 320.351C503.846 322.552 495.483 328.274 483.158 327.834C472.154 327.834 464.232 322.992 461.591 320.791C458.95 322.552 451.027 327.834 439.583 327.834C428.579 327.834 420.656 322.992 418.015 320.791C415.375 322.552 407.452 327.834 396.448 327.834C384.564 327.834 376.641 322.112 374 320.351C393.367 249.927 414.054 179.062 434.741 108.637Z" stroke="currentColor" stroke-width="3" stroke-miterlimit="10"/>
<defs>
<clipPath id="clip0_0_1">
<rect width="975" height="415" fill="white"/>
</clipPath>
</defs>
</svg>
