<svg width="975" height="415" viewBox="0 0 975 415" fill="none" xmlns="http://www.w3.org/2000/svg">
<g opacity="0.15" clip-path="url(#clip0_0_1)">
<path d="M180.48 409.46C152.76 409.46 127.92 403.16 105.96 390.56C84 378.32 67.26 361.58 55.74 340.34L91.38 306.32C101.46 321.8 114.42 334.04 130.26 343.04C146.1 352.4 163.02 357.08 181.02 357.08C195.78 357.08 208.92 353.84 220.44 347.36C231.96 341.24 240.96 332.6 247.44 321.44C254.28 309.92 257.7 296.78 257.7 282.02C257.7 267.62 254.46 255.02 247.98 244.22C241.5 233.06 232.86 224.6 222.06 218.84C211.26 212.72 198.84 209.66 184.8 209.66C171.12 209.66 158.34 212.72 146.46 218.84C134.58 224.96 124.86 233.6 117.3 244.76H64.92L108.66 20.66H296.04V75.2H151.86L132.42 179.96C138.54 173.48 146.82 168.26 157.26 164.3C167.7 159.98 179.58 157.82 192.9 157.82C217.02 157.82 238.44 163.22 257.16 174.02C276.24 184.46 291.18 198.86 301.98 217.22C313.14 235.58 318.72 256.82 318.72 280.94C318.72 306.5 312.6 328.82 300.36 347.9C288.12 367.34 271.56 382.46 250.68 393.26C229.8 404.06 206.4 409.46 180.48 409.46ZM608.042 170.78C608.042 202.46 601.922 230.72 589.682 255.56C577.802 280.04 561.422 299.3 540.542 313.34C520.022 327.38 496.442 334.4 469.802 334.4C443.522 334.4 419.942 327.38 399.062 313.34C378.182 299.3 361.622 280.04 349.382 255.56C337.502 230.72 331.562 202.46 331.562 170.78C331.562 139.1 337.502 111.02 349.382 86.54C361.622 61.7 378.182 42.26 399.062 28.22C419.942 13.82 443.522 6.62 469.802 6.62C496.442 6.62 520.022 13.82 540.542 28.22C561.422 42.26 577.802 61.7 589.682 86.54C601.922 111.02 608.042 139.1 608.042 170.78ZM547.562 170.78C547.562 149.18 544.322 130.28 537.842 114.08C531.362 97.52 522.182 84.74 510.302 75.74C498.422 66.38 484.922 61.7 469.802 61.7C454.322 61.7 440.642 66.38 428.762 75.74C416.882 84.74 407.522 97.52 400.682 114.08C394.202 130.28 390.962 149.18 390.962 170.78C390.962 192.38 394.202 211.28 400.682 227.48C407.522 243.68 416.882 256.46 428.762 265.82C440.642 274.82 454.322 279.32 469.802 279.32C484.922 279.32 498.242 274.82 509.762 265.82C521.642 256.46 530.822 243.68 537.302 227.48C544.142 211.28 547.562 192.38 547.562 170.78ZM907.341 170.78C907.341 202.46 901.221 230.72 888.981 255.56C877.101 280.04 860.721 299.3 839.841 313.34C819.321 327.38 795.741 334.4 769.101 334.4C742.821 334.4 719.241 327.38 698.361 313.34C677.481 299.3 660.921 280.04 648.681 255.56C636.801 230.72 630.861 202.46 630.861 170.78C630.861 139.1 636.801 111.02 648.681 86.54C660.921 61.7 677.481 42.26 698.361 28.22C719.241 13.82 742.821 6.62 769.101 6.62C795.741 6.62 819.321 13.82 839.841 28.22C860.721 42.26 877.101 61.7 888.981 86.54C901.221 111.02 907.341 139.1 907.341 170.78ZM846.861 170.78C846.861 149.18 843.621 130.28 837.141 114.08C830.661 97.52 821.481 84.74 809.601 75.74C797.721 66.38 784.221 61.7 769.101 61.7C753.621 61.7 739.941 66.38 728.061 75.74C716.181 84.74 706.821 97.52 699.981 114.08C693.501 130.28 690.261 149.18 690.261 170.78C690.261 192.38 693.501 211.28 699.981 227.48C706.821 243.68 716.181 256.46 728.061 265.82C739.941 274.82 753.621 279.32 769.101 279.32C784.221 279.32 797.541 274.82 809.061 265.82C820.941 256.46 830.121 243.68 836.601 227.48C843.441 211.28 846.861 192.38 846.861 170.78Z" fill="#7B7A7A"/>
</g>
<path d="M112 359.509C112 359.509 326.101 369.39 530.32 369.39C734.54 369.39 863 359.509 863 359.509" stroke="currentColor" stroke-width="3" stroke-miterlimit="10"/>
<path d="M503.969 211.285V254.105C503.969 270.574 494.088 280.456 494.088 280.456H484.206L461.149 306.807L451.268 346.333H444.68V359.508H408.448L410.424 355.556C413.388 349.956 418.988 346.333 425.576 346.333H431.505L454.562 277.162V221.166" stroke="currentColor" stroke-width="3" stroke-miterlimit="10"/>
<path d="M490.794 280.455L533.614 339.745L529.332 343.039L533.614 349.626V359.508H500.676V359.179C502.652 351.603 509.24 346.333 517.145 346.333V343.039L474.325 293.631" stroke="currentColor" stroke-width="3" stroke-miterlimit="10"/>
<path d="M454.561 250.812H503.969" stroke="currentColor" stroke-width="3" stroke-miterlimit="10"/>
<path d="M424.917 211.285L441.386 244.224H444.68V213.591C444.68 194.486 457.197 158.583 457.197 158.583V142.114" stroke="currentColor" stroke-width="3" stroke-miterlimit="10"/>
<path d="M494.088 211.285H263.518" stroke="currentColor" stroke-width="3" stroke-miterlimit="10"/>
<path d="M559.965 155.29H569.846" stroke="currentColor" stroke-width="3" stroke-miterlimit="10"/>
<path d="M559.965 165.171H569.846" stroke="currentColor" stroke-width="3" stroke-miterlimit="10"/>
<path d="M559.965 175.052H569.846" stroke="currentColor" stroke-width="3" stroke-miterlimit="10"/>
<path d="M503.969 155.29H553.377V175.053H542.507C526.038 175.053 510.228 169.783 496.723 160.23L494.088 158.583" stroke="currentColor" stroke-width="3" stroke-miterlimit="10"/>
<path d="M503.969 135.526C503.969 135.526 503.969 151.996 503.969 155.29L501.663 155.948C490.135 159.901 477.618 160.889 465.76 159.572L457.855 158.583" stroke="currentColor" stroke-width="3" stroke-miterlimit="10"/>
<path d="M436.445 108.517C435.457 114.446 438.422 120.045 444.351 122.68C449.95 124.986 456.209 123.339 459.832 118.728" stroke="currentColor" stroke-width="3" stroke-miterlimit="10"/>
<path d="M520.109 105.223C520.109 105.223 508.91 89.7415 487.83 80.5187C466.749 71.2959 447.645 73.931 447.645 73.931C456.209 53.8384 490.135 41.9805 502.323 47.2507C515.498 53.1796 528.673 85.1301 520.109 105.223Z" stroke="currentColor" stroke-width="3" stroke-miterlimit="10"/>
<path d="M459.831 61.4143C458.514 61.4143 457.196 61.4143 456.208 61.4143" stroke="currentColor" stroke-width="3" stroke-miterlimit="10"/>
<path d="M520.439 87.4358C515.168 82.1656 505.946 73.931 492.77 68.3314C479.595 62.7319 467.407 61.4143 459.831 61.4143" stroke="currentColor" stroke-width="3" stroke-miterlimit="10"/>
<path d="M522.744 90.0709C522.086 89.4121 521.427 88.4239 520.439 87.4358" stroke="currentColor" stroke-width="3" stroke-miterlimit="10"/>
<path d="M547.778 133.22C542.837 135.197 536.908 132.891 534.932 127.621L533.614 124.656C528.673 126.633 522.744 124.327 520.768 119.057L519.451 116.092V102.587" stroke="currentColor" stroke-width="3" stroke-miterlimit="10"/>
<path d="M504.299 91.3882L502.652 95.0114C500.676 99.6228 502.652 104.893 507.263 106.869L507.922 107.199L506.604 110.163C504.299 115.104 506.604 121.033 511.875 123.009C503.311 143.102 479.924 152.325 459.832 143.761C439.739 135.197 430.516 111.81 439.08 91.7176" stroke="currentColor" stroke-width="3" stroke-miterlimit="10"/>
<path d="M510.886 124.986C507.922 131.574 511.216 139.479 517.804 142.444" stroke="currentColor" stroke-width="3" stroke-miterlimit="10"/>
<path d="M553.048 94.6829L551.73 97.6473C549.425 102.588 543.825 104.894 538.884 102.918C536.579 107.858 530.979 110.164 526.038 108.188L523.074 106.87" stroke="currentColor" stroke-width="3" stroke-miterlimit="10"/>
<path d="M444.68 194.816H503.969" stroke="currentColor" stroke-width="3" stroke-miterlimit="10"/>
<path d="M494.088 211.285H724.658" stroke="currentColor" stroke-width="3" stroke-miterlimit="10"/>
<path d="M418.329 217.872V211.285L401.86 204.697L398.566 207.991V217.872L401.86 221.166H418.329L424.917 214.579" stroke="currentColor" stroke-width="3" stroke-miterlimit="10"/>
<path d="M507.263 221.166L503.969 211.285L520.439 204.697L523.732 207.991V217.872L520.439 221.166H507.263Z" stroke="currentColor" stroke-width="3" stroke-miterlimit="10"/>
<path d="M447.974 72.9429C446.327 79.86 438.751 83.8126 432.163 81.1775L428.211 79.5306" stroke="currentColor" stroke-width="3" stroke-miterlimit="10"/>
<defs>
<clipPath id="clip0_0_1">
<rect width="975" height="415" fill="white"/>
</clipPath>
</defs>
</svg>
